<?xml version="1.0" ?><!DOCTYPE svg  PUBLIC '-//W3C//DTD SVG 1.1//EN'  'http://www.w3.org/Graphics/SVG/1.1/DTD/svg11.dtd'><svg enable-background="new 0 0 128 128" id="Слой_1" version="1.1" viewBox="0 0 128 128" xml:space="preserve" xmlns="http://www.w3.org/2000/svg" xmlns:xlink="http://www.w3.org/1999/xlink"><g><circle cx="64" cy="64" fill="#F0F1EE" r="62"/><g><g><path d="M64,126c34.2,0,62-27.8,62-62c0-12.1-3.5-23.3-9.4-32.8H67.2c-2.3,0-4.5-0.9-6.1-2.5l-1.3-1.3     c-1.6-1.6-3.8-2.5-6.1-2.5h-26c-4.8,0-8.6,3.9-8.6,8.6v73.2C30.3,118.5,46.3,126,64,126z" fill="#F9E373"/></g><g><path d="M20.2,107.9V33.4c0-4.1,3.3-7.4,7.4-7.4h26c2,0,3.8,0.8,5.2,2.2l1.3,1.3c1.9,1.9,4.3,2.9,7,2.9h50.2     c-0.5-0.8-1-1.7-1.6-2.5H67.2c-2,0-3.8-0.8-5.2-2.2l-1.3-1.3c-1.9-1.9-4.3-2.9-7-2.9h-26c-5.4,0-9.9,4.4-9.9,9.9v71.9     C18.6,106.2,19.4,107.1,20.2,107.9z" fill="#502D4B"/></g><g><path d="M120.8,39H37c-6.2,0-11.3,5-11.3,11.3v42.1c0,6.2,5,11.3,11.3,11.3h74.7C120.6,92.9,126,79.1,126,64     C126,55.1,124.1,46.7,120.8,39z" fill="#FFFFFF"/></g><path d="M120.8,39H37c-6.2,0-11.3,5-11.3,11.3v42.1c0,6.2,5,11.3,11.3,11.3h74.7    C120.6,92.9,126,79.1,126,64C126,55.1,124.1,46.7,120.8,39z" fill="#502D4B" opacity="0.2"/><g><path d="M37,102.4c-5.5,0-10-4.5-10-10V50.3c0-5.5,4.5-10,10-10h84c0.1,0,0.2,0,0.3,0c-0.4-0.8-0.7-1.7-1.1-2.5     H37c-6.9,0-12.5,5.6-12.5,12.5v42.1c0,6.9,5.6,12.5,12.5,12.5h73.6c0.7-0.8,1.4-1.6,2.1-2.5H37z" fill="#502D4B"/></g><g><path d="M126,64c0-6.2-0.9-12.3-2.6-18c-0.8-0.2-1.6-0.3-2.4-0.3H37c-6.2,0-11.3,5-11.3,11.3v42.1     c0,6.2,5,11.3,11.3,11.3h68.1C117.9,99,126,82.4,126,64z" fill="#FFFFFF"/></g><g><path d="M37,109.1c-5.5,0-10-4.5-10-10V57.1c0-5.5,4.5-10,10-10h84c1,0,1.9,0.1,2.8,0.4c-0.3-0.9-0.5-1.8-0.8-2.7     c-0.6-0.1-1.3-0.2-1.9-0.2H37c-6.9,0-12.5,5.6-12.5,12.5v42.1c0,6.9,5.6,12.5,12.5,12.5h66.7c1-0.8,1.9-1.6,2.8-2.5H37z" fill="#502D4B"/></g><g><path d="M64,126c34.2,0,62-27.8,62-62c0-3.5-0.3-7-0.9-10.3H30.3c-6.2,0-11.3,5-11.3,11.3v41.7     C30.3,118.5,46.3,126,64,126z" fill="#F9E373"/></g><g><circle cx="79" cy="92.8" fill="#FFFFFF" r="27.5"/></g><g><path d="M79,64c-15.9,0-28.8,12.9-28.8,28.8s12.9,28.8,28.8,28.8s28.8-12.9,28.8-28.8S94.9,64,79,64z M79,119     c-14.5,0-26.2-11.8-26.2-26.2S64.5,66.5,79,66.5s26.2,11.8,26.2,26.2S93.5,119,79,119z" fill="#502D4B"/></g><g><path d="M98.2,86.4H86.5c-0.4,0-0.8-0.4-0.8-0.8V73.9c0-0.4-0.4-0.8-0.8-0.8H73.1c-0.4,0-0.8,0.4-0.8,0.8v11.7     c0,0.4-0.4,0.8-0.8,0.8H59.8c-0.4,0-0.8,0.4-0.8,0.8v11.7c0,0.4,0.4,0.8,0.8,0.8h11.7c0.4,0,0.8,0.4,0.8,0.8v11.7     c0,0.4,0.4,0.8,0.8,0.8h11.7c0.4,0,0.8-0.4,0.8-0.8v-11.7c0-0.4,0.4-0.8,0.8-0.8h11.7c0.4,0,0.8-0.4,0.8-0.8V87.2     C99,86.8,98.6,86.4,98.2,86.4z" fill="#E074A3"/></g><g><path d="M98.2,85.1H86.9V73.9c0-1.1-0.9-2-2-2H73.1c-1.1,0-2,0.9-2,2v11.3H59.8c-1.1,0-2,0.9-2,2.1v11.7     c0,1.1,0.9,2,2,2h11.3v11.3c0,1.1,0.9,2.1,2,2.1h11.7c1.1,0,2-0.9,2-2.1V101h11.3c1.1,0,2-0.9,2-2V87.2     C100.2,86.1,99.3,85.1,98.2,85.1z M97.8,98.5H86.5c-1.1,0-2.1,0.9-2.1,2.1v11.3H73.6v-11.3c0-1.1-0.9-2.1-2.1-2.1H60.2V87.6h11.3     c1.1,0,2.1-0.9,2.1-2V74.3h10.8v11.3c0,1.1,0.9,2,2.1,2h11.3V98.5z" fill="#502D4B"/></g><g><path d="M20.2,107.9v-43c0-5.5,4.5-10,10-10h95.1c-0.1-0.8-0.3-1.7-0.4-2.5H30.3c-6.9,0-12.5,5.6-12.5,12.5v40.3     C18.6,106.2,19.4,107.1,20.2,107.9z" fill="#502D4B"/></g></g></g></svg>